<svg width="441" height="204" viewBox="0 0 441 204" fill="none" xmlns="http://www.w3.org/2000/svg">
<g clip-path="url(#clip0_2_25)">
<path d="M374.221 2.51232H252.345V0H197.081V2.51232H74.7026C73.6199 2.51232 72.5479 2.72559 71.5477 3.13994C70.5475 3.5543 69.6387 4.16163 68.8732 4.92726C68.1076 5.69289 67.5004 6.60183 67.0861 7.60218C66.6718 8.60252 66.4586 9.67469 66.4586 10.7575V177.666C66.4586 179.853 67.3271 181.95 68.8732 183.496C70.4192 185.043 72.5161 185.911 74.7026 185.911H374.221C375.303 185.911 376.375 185.698 377.376 185.284C378.376 184.869 379.285 184.262 380.05 183.496C380.816 182.731 381.423 181.822 381.837 180.821C382.252 179.821 382.465 178.749 382.465 177.666V10.7575C382.465 9.67468 382.252 8.60252 381.837 7.60217C381.423 6.60182 380.816 5.69289 380.05 4.92726C379.285 4.16162 378.376 3.55429 377.376 3.13994C376.375 2.72558 375.303 2.51231 374.221 2.51232Z" fill="#3F3D56"/>
<path d="M371.412 17.0837H77.5113V182.897H371.412V17.0837Z" fill="#ADDCB5"/>
<path d="M224.211 12.5616C225.875 12.5616 227.225 11.2118 227.225 9.54682C227.225 7.88181 225.875 6.53204 224.211 6.53204C222.546 6.53204 221.196 7.88181 221.196 9.54682C221.196 11.2118 222.546 12.5616 224.211 12.5616Z" fill="#0067F4"/>
<path d="M354.54 38.187H340.608V24.2535H354.54V38.187ZM341.214 37.5812H353.934V24.8593H341.214V37.5812Z" fill="#3F3D56"/>
<path d="M390.717 179.882H362.034V177.815C362.034 177.761 362.024 177.708 362.003 177.658C361.982 177.608 361.952 177.563 361.914 177.525C361.876 177.487 361.831 177.457 361.781 177.436C361.732 177.416 361.678 177.405 361.624 177.405H351.79C351.737 177.405 351.683 177.416 351.634 177.436C351.584 177.457 351.539 177.487 351.501 177.525C351.463 177.563 351.432 177.608 351.412 177.658C351.391 177.708 351.381 177.761 351.381 177.815V179.882H345.234V177.815C345.234 177.761 345.224 177.708 345.203 177.658C345.182 177.608 345.152 177.563 345.114 177.525C345.076 177.487 345.031 177.457 344.981 177.436C344.932 177.416 344.878 177.405 344.825 177.405H334.99C334.937 177.405 334.883 177.416 334.834 177.436C334.784 177.457 334.739 177.487 334.701 177.525C334.663 177.563 334.632 177.608 334.612 177.658C334.591 177.708 334.581 177.761 334.581 177.815V179.882H328.434V177.815C328.434 177.761 328.424 177.708 328.403 177.658C328.383 177.608 328.352 177.563 328.314 177.525C328.276 177.487 328.231 177.457 328.181 177.436C328.132 177.416 328.078 177.405 328.025 177.405H318.19C318.137 177.405 318.083 177.416 318.034 177.436C317.984 177.457 317.939 177.487 317.901 177.525C317.863 177.563 317.832 177.608 317.812 177.658C317.791 177.708 317.781 177.761 317.781 177.815V179.882H311.634V177.815C311.634 177.761 311.624 177.708 311.603 177.658C311.583 177.608 311.552 177.563 311.514 177.525C311.476 177.487 311.431 177.457 311.381 177.436C311.332 177.416 311.278 177.405 311.225 177.405H301.391C301.337 177.405 301.283 177.416 301.234 177.436C301.184 177.457 301.139 177.487 301.101 177.525C301.063 177.563 301.033 177.608 301.012 177.658C300.991 177.708 300.981 177.761 300.981 177.815V179.882H294.834V177.815C294.834 177.761 294.824 177.708 294.803 177.658C294.783 177.608 294.752 177.563 294.714 177.525C294.676 177.487 294.631 177.457 294.581 177.436C294.532 177.416 294.478 177.405 294.425 177.405H284.591C284.537 177.405 284.483 177.416 284.434 177.436C284.384 177.457 284.339 177.487 284.301 177.525C284.263 177.563 284.233 177.608 284.212 177.658C284.191 177.708 284.181 177.761 284.181 177.815V179.882H278.034V177.815C278.034 177.761 278.024 177.708 278.003 177.658C277.983 177.608 277.953 177.563 277.914 177.525C277.876 177.487 277.831 177.457 277.782 177.436C277.732 177.416 277.679 177.405 277.625 177.405H267.791C267.737 177.405 267.684 177.416 267.634 177.436C267.584 177.457 267.539 177.487 267.501 177.525C267.463 177.563 267.433 177.608 267.412 177.658C267.391 177.708 267.381 177.761 267.381 177.815V179.882H261.235V177.815C261.235 177.761 261.224 177.708 261.203 177.658C261.183 177.608 261.153 177.563 261.115 177.525C261.076 177.487 261.031 177.457 260.982 177.436C260.932 177.416 260.879 177.405 260.825 177.405H183.791C183.737 177.405 183.684 177.416 183.634 177.436C183.584 177.457 183.539 177.487 183.501 177.525C183.463 177.563 183.433 177.608 183.412 177.658C183.392 177.708 183.381 177.761 183.381 177.815V179.882H177.235V177.815C177.235 177.761 177.224 177.708 177.204 177.658C177.183 177.608 177.153 177.563 177.115 177.525C177.077 177.487 177.032 177.457 176.982 177.436C176.932 177.416 176.879 177.405 176.825 177.405H166.991C166.937 177.405 166.884 177.416 166.834 177.436C166.784 177.457 166.739 177.487 166.701 177.525C166.663 177.563 166.633 177.608 166.612 177.658C166.592 177.708 166.581 177.761 166.581 177.815V179.882H160.435V177.815C160.435 177.761 160.424 177.708 160.404 177.658C160.383 177.608 160.353 177.563 160.315 177.525C160.277 177.487 160.232 177.457 160.182 177.436C160.132 177.416 160.079 177.405 160.025 177.405H150.191C150.137 177.405 150.084 177.416 150.034 177.436C149.985 177.457 149.939 177.487 149.901 177.525C149.863 177.563 149.833 177.608 149.812 177.658C149.792 177.708 149.781 177.761 149.781 177.815V179.882H143.635V177.815C143.635 177.761 143.624 177.708 143.604 177.658C143.583 177.608 143.553 177.563 143.515 177.525C143.477 177.487 143.432 177.457 143.382 177.436C143.332 177.416 143.279 177.405 143.225 177.405H133.391C133.337 177.405 133.284 177.416 133.234 177.436C133.185 177.457 133.139 177.487 133.101 177.525C133.063 177.563 133.033 177.608 133.013 177.658C132.992 177.708 132.981 177.761 132.981 177.815V179.882H126.835V177.815C126.835 177.761 126.824 177.708 126.804 177.658C126.783 177.608 126.753 177.563 126.715 177.525C126.677 177.487 126.632 177.457 126.582 177.436C126.532 177.416 126.479 177.405 126.425 177.405H116.591C116.537 177.405 116.484 177.416 116.434 177.436C116.385 177.457 116.339 177.487 116.301 177.525C116.263 177.563 116.233 177.608 116.213 177.658C116.192 177.708 116.181 177.761 116.181 177.815V179.882H110.035V177.815C110.035 177.761 110.024 177.708 110.004 177.658C109.983 177.608 109.953 177.563 109.915 177.525C109.877 177.487 109.832 177.457 109.782 177.436C109.732 177.416 109.679 177.405 109.625 177.405H99.7912C99.7374 177.405 99.6841 177.416 99.6344 177.436C99.5847 177.457 99.5395 177.487 99.5015 177.525C99.4634 177.563 99.4332 177.608 99.4126 177.658C99.3921 177.708 99.3815 177.761 99.3815 177.815V179.882H93.2351V177.815C93.2351 177.761 93.2245 177.708 93.2039 177.658C93.1834 177.608 93.1532 177.563 93.1151 177.525C93.0771 177.487 93.0319 177.457 92.9822 177.436C92.9325 177.416 92.8792 177.405 92.8254 177.405H82.9913C82.9375 177.405 82.8842 177.416 82.8345 177.436C82.7847 177.457 82.7396 177.487 82.7015 177.525C82.6635 177.563 82.6333 177.608 82.6127 177.658C82.5921 177.708 82.5815 177.761 82.5815 177.815V179.882H63.7328C61.1246 179.882 58.6233 180.918 56.779 182.763C54.9348 184.607 53.8987 187.109 53.8987 189.717V194.165C53.8987 196.773 54.9348 199.275 56.779 201.119C58.6233 202.964 61.1246 204 63.7328 204H390.717C393.325 204 395.827 202.964 397.671 201.119C399.515 199.275 400.551 196.773 400.551 194.165V189.717C400.551 187.109 399.515 184.607 397.671 182.763C395.827 180.918 393.325 179.882 390.717 179.882Z" fill="#3F3D56"/>
<path d="M441 193.91H13.4498V195.215H441V193.91Z" fill="#3F3D56"/>
<path d="M353.244 109.478H258.618V55.5988H353.244V109.478ZM259.554 108.541H352.307V56.5358H259.554V108.541Z" fill="#3F3D56"/>
<path d="M179.918 120.254H95.5972V67.7801H179.918V120.254ZM96.5341 119.317H178.981V68.7171H96.5341V119.317Z" fill="#3F3D56"/>
<path d="M134.991 100.107L134.91 99.0597C134.669 96.8841 135.394 94.5068 137.408 92.0897C139.221 89.9539 140.228 88.3827 140.228 86.5695C140.228 84.5148 138.939 83.1449 136.401 83.1047C134.949 83.0988 133.53 83.5344 132.332 84.3537L131.365 81.8153C132.695 80.8481 134.991 80.2034 137.126 80.2034C141.759 80.2034 143.854 83.0644 143.854 86.1262C143.854 88.8663 142.323 90.8406 140.389 93.1369C138.617 95.232 137.972 97.0049 138.093 99.0597L138.133 100.107L134.991 100.107ZM134.105 105.748C134.083 105.42 134.13 105.09 134.242 104.78C134.354 104.471 134.529 104.187 134.756 103.949C134.984 103.71 135.258 103.521 135.562 103.394C135.866 103.267 136.192 103.204 136.522 103.21C137.932 103.21 138.899 104.257 138.899 105.748C138.912 106.071 138.86 106.394 138.745 106.696C138.631 106.999 138.457 107.275 138.233 107.508C138.009 107.742 137.74 107.928 137.443 108.054C137.145 108.181 136.825 108.247 136.502 108.247C136.178 108.247 135.858 108.181 135.561 108.054C135.263 107.928 134.995 107.742 134.771 107.508C134.547 107.275 134.372 106.999 134.258 106.696C134.144 106.394 134.091 106.071 134.105 105.748Z" fill="#D0CDE1"/>
<path d="M303.164 88.3946L303.084 87.3469C302.842 85.1713 303.567 82.794 305.581 80.3768C307.394 78.2411 308.401 76.6699 308.401 74.8567C308.401 72.8019 307.112 71.4321 304.574 71.3918C303.123 71.3859 301.704 71.8215 300.505 72.6409L299.538 70.1025C300.868 69.1353 303.164 68.4906 305.299 68.4906C309.932 68.4906 312.027 71.3515 312.027 74.4134C312.027 77.1535 310.496 79.1278 308.562 81.4241C306.79 83.5192 306.145 85.2921 306.266 87.3469L306.306 88.3946L303.164 88.3946ZM302.278 94.0355C302.256 93.7068 302.303 93.3772 302.415 93.0675C302.527 92.7577 302.703 92.4746 302.93 92.2361C303.157 91.9975 303.431 91.8087 303.735 91.6815C304.039 91.5543 304.366 91.4915 304.695 91.4971C306.105 91.4971 307.072 92.5444 307.072 94.0355C307.085 94.3587 307.033 94.6812 306.919 94.9836C306.804 95.2861 306.63 95.5623 306.406 95.7957C306.182 96.029 305.913 96.2147 305.616 96.3415C305.318 96.4684 304.998 96.5337 304.675 96.5337C304.352 96.5337 304.032 96.4684 303.734 96.3415C303.437 96.2147 303.168 96.029 302.944 95.7957C302.72 95.5623 302.546 95.2861 302.431 94.9836C302.317 94.6812 302.265 94.3587 302.278 94.0355Z" fill="#D0CDE1"/>
<path d="M226.117 162.64C248.443 162.64 266.541 144.539 266.541 122.211C266.541 99.8827 248.443 81.782 226.117 81.782C203.792 81.782 185.694 99.8827 185.694 122.211C185.694 144.539 203.792 162.64 226.117 162.64Z" fill="#2F2E41"/>
<path d="M210.505 177.575L198.42 175.387L202.34 150.151L214.424 152.339L210.505 177.575Z" fill="#2F2E41"/>
<path d="M238.592 156.714L226.508 154.527L222.589 176.18L234.673 178.368L238.592 156.714Z" fill="#2F2E41"/>
<path d="M242.75 179.548C243.169 177.47 239.018 174.879 233.478 173.76C227.937 172.642 223.106 173.419 222.687 175.497C222.267 177.575 226.419 180.166 231.959 181.285C237.499 182.403 242.33 181.626 242.75 179.548Z" fill="#2F2E41"/>
<path d="M217.58 178.895C217.859 176.794 213.542 174.488 207.939 173.746C202.336 173.004 197.568 174.105 197.29 176.207C197.012 178.308 201.328 180.614 206.931 181.356C212.534 182.098 217.302 180.997 217.58 178.895Z" fill="#2F2E41"/>
<path d="M228.947 126.139C236.577 126.139 242.763 119.953 242.763 112.322C242.763 104.691 236.577 98.5043 228.947 98.5043C221.317 98.5043 215.132 104.691 215.132 112.322C215.132 119.953 221.317 126.139 228.947 126.139Z" fill="white"/>
<path d="M234.625 111.975C237.169 111.975 239.231 109.913 239.231 107.369C239.231 104.825 237.169 102.763 234.625 102.763C232.082 102.763 230.02 104.825 230.02 107.369C230.02 109.913 232.082 111.975 234.625 111.975Z" fill="#3F3D56"/>
<path d="M194.229 78.2285C193.621 63.2611 206.519 50.5836 223.037 49.9125C239.556 49.2414 253.439 60.8309 254.047 75.7983C254.655 90.7658 243.173 94.1665 226.654 94.8376C210.136 95.5087 194.837 93.1959 194.229 78.2285Z" fill="white"/>
<path d="M264.86 121.031C275.741 118.537 283.927 113.745 283.144 110.329C282.361 106.913 272.906 106.166 262.025 108.66C251.145 111.154 242.959 115.946 243.742 119.362C244.525 122.778 253.98 123.525 264.86 121.031Z" fill="#2F2E41"/>
<path d="M185.51 134.229C196.391 131.734 204.577 126.943 203.794 123.527C203.011 120.11 193.556 119.363 182.675 121.857C171.795 124.352 163.609 129.143 164.392 132.559C165.175 135.976 174.63 136.723 185.51 134.229Z" fill="#2F2E41"/>
<path d="M215.015 138.144C214.799 139.334 214.821 140.555 215.077 141.737C215.333 142.919 215.82 144.04 216.509 145.034C217.199 146.028 218.077 146.876 219.094 147.531C220.111 148.185 221.247 148.633 222.437 148.849C223.628 149.064 224.848 149.043 226.031 148.787C227.213 148.53 228.333 148.044 229.326 147.354C230.32 146.665 231.169 145.787 231.823 144.769C232.478 143.752 232.926 142.616 233.141 141.425C234.047 136.419 230.177 134.648 225.172 133.742C220.166 132.835 215.921 133.137 215.015 138.144Z" fill="white"/>
<path d="M138.859 6.14795H72.3917V69.3819H138.859V6.14795Z" fill="#D0CDE1"/>
<path d="M131.305 13.702H79.9448V52.9832H131.305V13.702Z" fill="white"/>
<path d="M107.831 57.6174H79.8939V59.088H107.831V57.6174Z" fill="#F2F2F2"/>
<path d="M107.831 62.0291H79.8939V63.4997H107.831V62.0291Z" fill="#F2F2F2"/>
<path d="M89.0836 39.2355C92.3318 39.2355 94.965 36.6019 94.965 33.3532C94.965 30.1046 92.3318 27.471 89.0836 27.471C85.8354 27.471 83.2022 30.1046 83.2022 33.3532C83.2022 36.6019 85.8354 39.2355 89.0836 39.2355Z" fill="#3F3D56"/>
<path d="M105.625 39.2355C108.873 39.2355 111.507 36.6019 111.507 33.3532C111.507 30.1046 108.873 27.471 105.625 27.471C102.377 27.471 99.7437 30.1046 99.7437 33.3532C99.7437 36.6019 102.377 39.2355 105.625 39.2355Z" fill="#8FED9F"/>
<path d="M122.167 39.2355C125.415 39.2355 128.048 36.6019 128.048 33.3532C128.048 30.1046 125.415 27.471 122.167 27.471C118.918 27.471 116.285 30.1046 116.285 33.3532C116.285 36.6019 118.918 39.2355 122.167 39.2355Z" fill="#E6E6E6"/>
<path d="M105.625 12.7655C107.249 12.7655 108.566 11.4487 108.566 9.82435C108.566 8.20002 107.249 6.88324 105.625 6.88324C104.001 6.88324 102.684 8.20002 102.684 9.82435C102.684 11.4487 104.001 12.7655 105.625 12.7655Z" fill="#3F3D56"/>
<path d="M170.473 128.588H104.006V191.821H170.473V128.588Z" fill="#D0CDE1"/>
<path d="M162.92 136.142H111.559V175.423H162.92V136.142Z" fill="white"/>
<path d="M140.867 142.597H122.861V160.605H140.867V142.597Z" fill="#8FED9F"/>
<path d="M129.754 147.1V168.967H151.618V147.1H129.754ZM150.67 168.019H130.702V148.049H150.67V168.019Z" fill="#3F3D56"/>
<path d="M139.445 179.322H111.508V180.792H139.445V179.322Z" fill="#F2F2F2"/>
<path d="M137.24 135.205C138.864 135.205 140.18 133.888 140.18 132.264C140.18 130.64 138.864 129.323 137.24 129.323C135.615 129.323 134.299 130.64 134.299 132.264C134.299 133.888 135.615 135.205 137.24 135.205Z" fill="#3F3D56"/>
<path d="M343.525 109.657H277.058V172.891H343.525V109.657Z" fill="#D0CDE1"/>
<path d="M335.972 117.211H284.611V156.492H335.972V117.211Z" fill="white"/>
<path d="M315.816 147.962H304.767V151.237H315.816V147.962Z" fill="#3F3D56"/>
<path d="M329.174 122.466H291.409V123.869H329.174V122.466Z" fill="#3F3D56"/>
<path d="M329.174 126.91H291.409V128.314H329.174V126.91Z" fill="#3F3D56"/>
<path d="M329.174 131.354H291.409V132.758H329.174V131.354Z" fill="#3F3D56"/>
<path d="M329.174 135.799H291.409V137.202H329.174V135.799Z" fill="#3F3D56"/>
<path d="M329.174 140.243H291.409V141.647H329.174V140.243Z" fill="#3F3D56"/>
<path d="M312.497 160.391H284.56V161.861H312.497V160.391Z" fill="#F2F2F2"/>
<path d="M323.525 164.067H284.56V165.538H323.525V164.067Z" fill="#F2F2F2"/>
<path d="M310.291 116.274C311.915 116.274 313.232 114.957 313.232 113.333C313.232 111.709 311.915 110.392 310.291 110.392C308.667 110.392 307.351 111.709 307.351 113.333C307.351 114.957 308.667 116.274 310.291 116.274Z" fill="#3F3D56"/>
</g>
<defs>
<clipPath id="clip0_2_25">
<rect width="441" height="204" fill="white"/>
</clipPath>
</defs>
</svg>
