<svg width="543" height="310" viewBox="0 0 543 310" fill="none" xmlns="http://www.w3.org/2000/svg">
<path d="M219.089 0C179.038 0 139.23 17.9191 110.909 48.6911C93.0662 68.0784 79.9321 92.419 72.6483 118.658C55.141 122.249 38.6064 131.533 25.9989 145.232C9.56612 163.087 0 188.175 0 213.426C0 238.677 9.56612 263.774 25.9989 281.629C42.4318 299.484 65.5291 309.878 88.7686 309.878H486.339C501.173 309.878 515.918 303.247 526.407 291.85C536.897 280.453 543 264.431 543 248.313C543 232.195 536.897 216.182 526.407 204.785C515.983 193.458 501.353 186.845 486.612 186.764C483.735 157.561 471.559 129.453 452.431 108.669C430.404 84.7358 399.446 70.8 368.296 70.8C360.733 70.8 353.186 71.6426 345.771 73.2289C340.345 64.4308 334.166 56.1855 327.268 48.6911C298.948 17.9191 259.14 0 219.089 0Z" fill="#0067F4" fill-opacity="0.55"/>
</svg>
